PathFileType	4	(X/Y/Z)	pose_F01_0-83.trc
DataRate	CameraRate	NumFrames	NumMarkers	Units	OrigDataRate	OrigDataStartFrame	OrigNumFrames
30	30	10	21	m	30	59	83
Frame#	Time	CHip			RHip			RKnee			RAnkle			RBigToe			RSmallToe			RHeel			LHip			LKnee			LAnkle			LBigToe			LSmallToe			LHeel			Neck			Nose			RShoulder			RElbow			RWrist			LShoulder			LElbow			LWrist			
		X1	Y1	Z1	X2	Y2	Z2	X3	Y3	Z3	X4	Y4	Z4	X5	Y5	Z5	X6	Y6	Z6	X7	Y7	Z7	X8	Y8	Z8	X9	Y9	Z9	X10	Y10	Z10	X11	Y11	Z11	X12	Y12	Z12	X13	Y13	Z13	X14	Y14	Z14	X15	Y15	Z15	X16	Y16	Z16	X17	Y17	Z17	X18	Y18	Z18	X19	Y19	Z19	X20	Y20	Z20	X21	Y21	Z21	
59	1.9666666666666666	-0.2458311163535838	1.8287613746979228	-0.5301173668569271	-0.26318138513061495	1.8260667849720218	-0.47130975283962795	-0.23302329711664382	1.7042327321992379	-0.5398289862865917													-0.22637061058146182	1.832489123705339	-0.5859406235169501	-0.22080194211335002	1.706193113823473	-0.5964040967916436	-0.20056259438068064	1.588323625885049	-0.5845208190948064	-0.19443256912850287	1.5596511750614812	-0.6603031047974744	-0.1869478962050022	1.5684710457635318	-0.6690339938535056	-0.20244691085933622	1.5805852927214388	-0.55596318131919	-0.24328023940344104	1.98657256164692	-0.5206824454670169	-0.24805625539506818	2.053536960966096	-0.5864715616284119	-0.2691085889777506	1.985493493095559	-0.44935278243514354	-0.2915206657905106	1.9091066206153227	-0.4590505236259925	-1.5415582810816864	1.8664441770758442	0.7909549438109434	-0.21523159266820158	1.9885943265240718	-0.6096874273258941	-0.20507287137850053	1.9111472813126114	-0.6150657192845691	-0.2035868350981421	1.8357631284743903	-0.6437148427724584
60	2.0	-0.24533107711188654	1.8324182487330718	-0.5307610728986757	-0.26283047403056314	1.8284069537100072	-0.47183737924644364	-0.23302329711664382	1.7042327321992379	-0.5398289862865917													-0.22803618960047922	1.8347206891008216	-0.5842021348728409	-0.2192525336168562	1.712434825226125	-0.5860004956484801	-0.20021679934441589	1.592486088166349	-0.5636944838352036	-0.19588007595395537	1.5626784215152743	-0.6384233654935546	-0.1884312616695685	1.5706607868147824	-0.64735426427089	-0.20645909742463767	1.5842372948222658	-0.5434394528592531	-0.2443009845926236	1.9880174370357853	-0.524078431026957	-0.2480896069857795	2.054702238506033	-0.5868786683164505	-0.2691891006076286	1.9868264903632409	-0.4497636142289644	-0.28853027959738836	1.906302327863222	-0.45768625291972115	-1.5482455757118905	1.8660162884368194	0.8049271552344603	-0.21522132114124468	1.9872518683292248	-0.6093457206819486	-0.20512390312506681	1.9095869742304505	-0.6151590594719617	-0.20355949020988062	1.831572502497022	-0.64343209873722
61	2.033333333333333	-0.24360497867367525	1.8293640946078222	-0.5323148282030419	-0.2628829430635604	1.826613783542371	-0.4714278986355699	-0.23302329711664382	1.7042327321992379	-0.5398289862865917													-0.22620442817990208	1.8342974037874042	-0.5861471388561963	-0.21823399497880394	1.7092800356106284	-0.582210109579391	-0.2024051209945846	1.591707529977814	-0.5480764819742406	-0.20097690602291435	1.5614217025116144	-0.6199402924593882	-0.1911832975308371	1.5729916435417863	-0.6273075463051303	-0.20965511126851394	1.59699728599116	-0.5338109592201462	-0.24227238850020433	1.9869889430823493	-0.5258479589049763	-0.24810173735015148	2.054675179333753	-0.5868066699945426	-0.26905058426126366	1.9855580616744293	-0.44938325653010425	-0.2863106632691244	1.9018903088744454	-0.4590686410820334	-1.5545904416355065	1.865538189658825	0.8181881470317461	-0.2151813381846576	1.9873998442249856	-0.6094578583183041	-0.20513852469192065	1.9157316599932523	-0.6243175865588606	-0.20405255132697084	1.8405131888987798	-0.6435503145600988
62	2.066666666666667	-0.24335921367099128	1.8306958860493814	-0.5325471425714069	-0.26078918869592393	1.8253092208427895	-0.4734488132522206	-0.23302329711664382	1.7042327321992379	-0.5398289862865917													-0.22611924080621315	1.8338742798939935	-0.5861114504391682	-0.21721399872287334	1.712052024525241	-0.5792026384477191	-0.20499825266602742	1.599157880928837	-0.5376963711888144	-0.1982622227474029	1.569439444292574	-0.6026966672097323	-0.18899735208345206	1.5808382764841822	-0.6090020224363298	-0.20941344963352124	1.603583599768741	-0.5126171824388244	-0.24130381508196164	1.9864864609660493	-0.5227127091070903	-0.24802180040036992	2.0533975673763014	-0.5863771407685296	-0.2691272094929947	1.9828817863820785	-0.4489467917740348	-0.282388907189915	1.9024179374184256	-0.46321713585445495	-1.5528871276064622	1.8649818678257728	0.8165734829028171	-0.2120487119566068	1.9893395591980212	-0.6083767994726297	-0.20196513880787093	1.9189479246232561	-0.6235019147453775	-0.20387827461061084	1.841862558922993	-0.643778163489709
63	2.1	-0.23821434991329227	1.829635295441194	-0.5338022746619322	-0.25634296473768897	1.8247608623248	-0.4780471885266253	-0.23302329711664382	1.7042327321992379	-0.5398289862865917													-0.22147738217558932	1.8336766717202433	-0.5906584128068636	-0.2113704549553592	1.7113689379772554	-0.5597339735324269	-0.20377103466223592	1.5979227004251557	-0.5353447966441975	-0.19902177935809573	1.5672004212945876	-0.5975238922766268	-0.18930159552463197	1.5786493699395105	-0.6046389845693707	-0.20941344963352124	1.603583599768741	-0.5126171824388244	-0.2372462777344009	1.9851090095469406	-0.5268201190213445	-0.24606468154284056	2.053464871344504	-0.5884203827113826	-0.2651965509125677	1.981409760410189	-0.4528075395183967	-0.277263697870256	1.9009821967547622	-0.4641772800313961	-1.5495272267653721	1.8651852733785925	0.8128890175141376	-0.21103967499644405	1.9874804456776876	-0.6137648635235193	-0.20083719846228715	1.915460738469497	-0.6289900411583539	-0.19993629058818077	1.8337640883754103	-0.6475153769668451
64	2.1333333333333333	-0.23589161340189735	1.8309024728061372	-0.5362492680383406	-0.2524785937544574	1.8265134447864666	-0.48256470946072727	-0.23302329711664382	1.7042327321992379	-0.5398289862865917													-0.2163675766200181	1.8346044793587597	-0.5920884278235876	-0.21024074210167212	1.7070503746870318	-0.5558044150296407	-0.20254381665844445	1.5966875199214747	-0.5329932220995806	-0.19988457635624643	1.5663602917051576	-0.600722590024867	-0.1902102717948661	1.5757711582862064	-0.6076391763369731	-0.20941344963352124	1.603583599768741	-0.5126171824388244	-0.23401988518343944	1.9845334322816053	-0.5340324842339729	-0.24593133294680877	2.053667131227617	-0.5884537296336181	-1.7747163027782933	1.8891286103587077	1.2167333307843047	-0.2752366519759634	1.8983486613603817	-0.46603007343235175	-0.2654763972322718	1.9450816192833449	-0.5556544732889822	-0.20875653667547805	1.9870750948285323	-0.6158069118968299	-0.19720055312384546	1.915422055044263	-0.6276447735670084	-0.1950331030643958	1.836846187265364	-0.6528854632997341
65	2.1666666666666665	-0.233899915577386	1.8325773495758069	-0.5386175670148955	-0.25065780916650954	1.8296202617459054	-0.48505483877394445	-0.2541985658196439	1.6974493096947345	-0.47159452219128917													-0.21428741950645308	1.8357344439970076	-0.5943320042636465	-0.20947493605677361	1.7083231703285597	-0.5525150972702513	-0.20131659865465296	1.5954523394177935	-0.5306416475549637	-0.20024320292003914	1.5656645265341715	-0.6001948603064038	-0.18752221163398106	1.574609553310739	-0.606017496997431	-0.20941344963352124	1.603583599768741	-0.5126171824388244	-0.23297463351977013	1.9833130401458754	-0.5394787726090795	-0.24185843441665286	2.054025495949176	-0.5928656769341939	-1.7733120817340906	1.8889857118574853	1.2151512387610992	-0.2695766516767074	1.89581634362238	-0.4724514949854719	-0.25762681333011583	1.9486499739433507	-0.5668932801182993	-0.20663758208692143	1.9865064940166346	-0.6182339569509282	-0.19778553425108117	1.9138132757973525	-0.6479819086015028	-0.19294747108569182	1.8369279369864322	-0.6549982954754143
66	2.2	-0.2298756538849542	1.8311097069545512	-0.5428326188818827	-0.24686295405952863	1.8287309086851138	-0.4892262221749422	-0.25216080951118003	1.6989345438539392	-0.47397953859066255													-0.21229375642974097	1.8342631452641343	-0.5962025432363047	-0.20907429404724054	1.7094633852441736	-0.5528952972869391	-0.2000893806508615	1.5942171589141125	-0.5282900730103467	-0.199370435866753	1.5668873504302256	-0.6056705920636174	-0.18871843488633364	1.57597012841083	-0.6092577612408813	-0.20941344963352124	1.603583599768741	-0.5126171824388244	-0.2299468928120821	1.9833928674615	-0.5470680055604115	-0.239697361053721	2.0524620818699693	-0.5947772183179854	-1.762478631096101	1.8889579225578235	1.1968215103353224	-0.26536528929939374	1.8968474486440914	-0.4769791828341576	-0.2514572674360865	1.9461611546970254	-0.5735467464711486	-0.20330072118615913	1.9861110436654572	-0.625655622115971	-0.1918466162603103	1.9108889559970428	-0.6375647418890288	-0.19060187101860615	1.8339969337913435	-0.6571949582276444
67	2.2333333333333334	-0.2256376869894401	1.8335719738728267	-0.5476801606073296	-0.24458140010885143	1.8300121000485399	-0.491876551229093	-0.2501230532027161	1.7004197780131436	-0.47636455499003594													-0.20797246435149067	1.8354463087605999	-0.6011288721656876	-0.20718607661416974	1.7106627980774038	-0.5549745591047297	-0.19886216264707	1.5929819784104313	-0.5259384984657298	-0.1957724140100586	1.5648536446874548	-0.6045945348810875	-0.18719809531624776	1.5736757436385627	-0.6061020980375231	-0.20941344963352124	1.603583599768741	-0.5126171824388244	-0.22581225033236338	1.9833666729762351	-0.551647293474841	-0.23342526515012166	2.0528593517454574	-0.6015740541120175	-1.759878334178292	1.889123901021042	1.1936073670400194	-0.26234306700386073	1.8977266324732982	-0.48440717073783773	-0.2490643620625326	1.9401671243516283	-0.5730495602526047	-0.19602593239317118	1.9865612800787824	-0.6295394269895733	-0.18467916206650195	1.9139910147209767	-0.641730825015314	-0.18537478811394104	1.8384834664047829	-0.6591464067442355
68	2.2666666666666666	-0.22145035089773166	1.834267640579133	-0.5522583029007567	-0.23636049877782436	1.832187768077906	-0.5009887694109781	-0.24591813513978694	1.69955024395913	-0.4808213414948407													-0.20136794747516915	1.837683459595337	-0.6082363176818121	-0.20684176501453108	1.7117223196075213	-0.5554019286818783	-0.1996771713604102	1.5929328559121823	-0.5280098772457796	-0.19925806030750476	1.56647929026639	-0.6057576654559617	-0.1884889943396069	1.5750911680971456	-0.6093228493512202	-0.20941344963352124	1.603583599768741	-0.5126171824388244	-0.22052494315306462	1.9839256567722356	-0.5614910661752996	-0.2300896224163931	2.0535482673520544	-0.6088508125244665	-1.7582968285536893	1.8891634033830274	1.1917675101066507	-0.259453479297023	1.8968018316453088	-0.48342868643124803	-0.24759313876241085	1.9445027823228043	-0.5783393433627275	-0.19179604240681003	1.9868413249143329	-0.6341178048855791	-0.17927648066722654	1.915314240504241	-0.6427403349579597	-0.18106581520991552	1.8387082618840405	-0.6636693011060061
